<svg width="20" height="20" viewBox="0 0 20 20" fill="none" xmlns="http://www.w3.org/2000/svg">
<mask id="mask0_103_313" style="mask-type:luminance" maskUnits="userSpaceOnUse" x="0" y="0" width="20" height="20">
<path d="M19.5 0.5V19.5H0.5V0.5H19.5Z" fill="white" stroke="white"/>
</mask>
<g mask="url(#mask0_103_313)">
<path d="M18.9912 8.68179C19.0616 9.18062 19.0996 9.69602 19.0996 10.2277C19.0995 13.0743 18.1069 15.4452 16.415 17.0773H13.8867V15.3253C14.9327 14.5464 15.633 13.4353 15.873 12.1408L15.9834 11.55H10.5V8.68179H18.9912Z" fill="#4285F4" stroke="black"/>
<path d="M4.05566 12.4C4.99663 14.7779 7.29133 16.523 10 16.523C11.2876 16.523 12.4209 16.2155 13.3525 15.6754L15.8252 17.5953C14.3183 18.7951 12.3432 19.4996 10 19.4996C6.32799 19.4996 3.14594 17.4182 1.56348 14.3678V12.4H4.05566Z" fill="#34A853" stroke="black"/>
<path d="M3.9043 6.00909V8.02277C3.70487 8.6469 3.59082 9.31339 3.59082 10.0003C3.59085 10.5915 3.67559 11.1673 3.82617 11.7142L1.25391 13.7093C0.770923 12.5694 0.500043 11.3153 0.5 10.0003C0.5 8.57591 0.817853 7.22273 1.37891 6.00909H3.9043Z" fill="#FBBC04" stroke="black"/>
<path d="M10 0.5C12.366 0.500028 14.3722 1.30167 15.959 2.62793L13.7988 4.78809C12.7268 3.91827 11.422 3.47756 10 3.47754C7.408 3.47754 5.19403 5.07461 4.18359 7.2959L1.70215 5.37207C3.32744 2.46375 6.43311 0.5 10 0.5Z" fill="#E94235" stroke="black"/>
</g>
</svg>
