<svg width="50" height="50" viewBox="0 0 50 50" fill="none" xmlns="http://www.w3.org/2000/svg">
<mask id="mask0_2169_2" style="mask-type:alpha" maskUnits="userSpaceOnUse" x="0" y="0" width="50" height="50">
<rect width="50" height="50" fill="#D9D9D9"/>
</mask>
<g mask="url(#mask0_2169_2)">
<path d="M22.9168 35.5208V15C21.4932 14.1666 19.9828 13.5416 18.3856 13.125C16.7884 12.7083 15.1738 12.5 13.5418 12.5C12.2918 12.5 11.0505 12.6215 9.81787 12.8645C8.58523 13.1076 7.396 13.4722 6.25016 13.9583V34.5833C7.46544 34.1666 8.67204 33.8541 9.86995 33.6458C11.0679 33.4375 12.2918 33.3333 13.5418 33.3333C15.1738 33.3333 16.7623 33.5156 18.3075 33.8802C19.8526 34.2447 21.3891 34.7916 22.9168 35.5208ZM25.0002 41.6666C23.3335 40.3472 21.5279 39.3229 19.5835 38.5937C17.6391 37.8645 15.6252 37.5 13.5418 37.5C12.0835 37.5 10.6512 37.6909 9.24495 38.0729C7.8387 38.4548 6.49322 38.993 5.2085 39.6875C4.47933 40.0694 3.7762 40.052 3.09912 39.6354C2.42204 39.2187 2.0835 38.6111 2.0835 37.8125V12.7083C2.0835 12.3263 2.17898 11.9618 2.36995 11.6145C2.56093 11.2673 2.84738 11.0069 3.22933 10.8333C4.82655 9.99996 6.49322 9.37496 8.22933 8.95829C9.96544 8.54163 11.7363 8.33329 13.5418 8.33329C16.1113 8.33329 18.2988 8.62843 20.1043 9.21871C21.9099 9.80899 23.8543 10.7118 25.9377 11.927C26.3196 12.1354 26.6061 12.3784 26.797 12.6562C26.988 12.934 27.0835 13.2986 27.0835 13.75V35.5208C28.6113 34.7916 30.1477 34.2447 31.6929 33.8802C33.238 33.5156 34.8266 33.3333 36.4585 33.3333C37.7085 33.3333 38.9325 33.4375 40.1304 33.6458C41.3283 33.8541 42.5349 34.1666 43.7502 34.5833V9.53121C44.271 9.70482 44.7831 9.89579 45.2866 10.1041C45.7901 10.3125 46.2849 10.5555 46.771 10.8333C47.1529 11.0069 47.4394 11.2673 47.6304 11.6145C47.8213 11.9618 47.9168 12.3263 47.9168 12.7083V37.8125C47.9168 38.6111 47.5783 39.2187 46.9012 39.6354C46.2241 40.052 45.521 40.0694 44.7918 39.6875C43.5071 38.993 42.1616 38.4548 40.7554 38.0729C39.3491 37.6909 37.9168 37.5 36.4585 37.5C34.3752 37.5 32.3613 37.8645 30.4168 38.5937C28.4724 39.3229 26.6668 40.3472 25.0002 41.6666ZM32.2918 29.1666V6.24996L38.5418 4.16663V27.0833L32.2918 29.1666Z" fill="#000217"/>
</g>
</svg>
