<?xml version="1.0" standalone="no"?>
<!DOCTYPE svg PUBLIC "-//W3C//DTD SVG 20010904//EN"
 "http://www.w3.org/TR/2001/REC-SVG-20010904/DTD/svg10.dtd">
<svg version="1.0" xmlns="http://www.w3.org/2000/svg"
 width="1024.000000pt" height="1024.000000pt" viewBox="0 0 1024.000000 1024.000000"
 preserveAspectRatio="xMidYMid meet">

<g transform="translate(0.000000,1024.000000) scale(0.100000,-0.100000)"
fill="#000000" stroke="none">
<path d="M4908 7589 c-997 -60 -1990 -626 -2883 -1644 -194 -222 -461 -575
-570 -755 l-47 -79 45 -73 c319 -512 915 -1162 1446 -1576 119 -93 434 -305
556 -374 1091 -617 2180 -630 3241 -38 391 218 761 506 1155 900 313 312 517
550 817 949 163 216 174 235 162 255 -7 11 -58 80 -114 151 -446 576 -918
1060 -1391 1431 -153 119 -463 324 -631 417 -370 204 -784 349 -1161 407 -112
17 -434 43 -483 38 -8 0 -72 -4 -142 -9z m467 -269 c710 -80 1391 -409 2085
-1006 246 -212 575 -551 829 -853 99 -118 241 -296 255 -318 8 -14 -42 -82
-230 -319 -361 -455 -774 -875 -1140 -1159 -490 -380 -995 -628 -1485 -729
-225 -46 -377 -59 -644 -53 -241 5 -337 16 -533 58 -835 181 -1698 766 -2439
1654 -114 137 -284 360 -348 458 -45 68 -53 45 73 226 296 425 735 895 1139
1218 248 198 470 342 738 479 353 181 702 293 1030 333 50 6 101 13 115 15 58
8 472 5 555 -4z"/>
<path d="M4975 6570 c-652 -69 -1172 -548 -1302 -1197 -24 -123 -24 -413 0
-536 41 -202 124 -400 241 -572 73 -109 241 -279 352 -358 284 -201 649 -301
984 -268 367 37 684 190 937 454 188 197 314 434 375 707 20 91 23 132 23 305
0 173 -3 214 -23 305 -26 116 -77 260 -127 361 -133 263 -380 511 -643 643
-259 130 -544 185 -817 156z m440 -264 c515 -128 883 -556 937 -1088 35 -344
-88 -702 -331 -960 -166 -176 -368 -295 -606 -354 -135 -34 -349 -43 -487 -20
-496 82 -886 441 -1011 934 -19 76 -22 112 -21 292 0 188 2 213 26 300 76 280
255 542 478 699 151 106 339 185 514 216 127 22 374 13 501 -19z"/>
<path d="M4988 5541 c-83 -27 -138 -62 -200 -129 -66 -71 -95 -131 -116 -233
-13 -68 -13 -84 1 -150 8 -41 25 -96 38 -123 28 -60 118 -159 176 -193 97 -57
233 -78 342 -52 160 37 293 169 336 336 62 238 -95 497 -336 552 -68 16 -178
12 -241 -8z m195 -232 c47 -13 109 -67 132 -115 13 -27 16 -55 13 -105 -3 -58
-8 -74 -34 -106 -85 -105 -211 -121 -309 -40 -99 81 -99 245 -1 323 63 51 125
64 199 43z"/>
</g>
</svg>
