<?xml version="1.0" standalone="no"?>
<!DOCTYPE svg PUBLIC "-//W3C//DTD SVG 20010904//EN"
 "http://www.w3.org/TR/2001/REC-SVG-20010904/DTD/svg10.dtd">
<svg version="1.0" xmlns="http://www.w3.org/2000/svg"
 width="500.000000pt" height="500.000000pt" viewBox="0 0 500.000000 500.000000"
 preserveAspectRatio="xMidYMid meet">

<g transform="translate(0.000000,500.000000) scale(0.100000,-0.100000)"
fill="#000000" stroke="none">
<path d="M3878 3539 c-200 -137 -398 -269 -404 -269 -3 0 -36 14 -72 31 -173
80 -278 118 -427 154 -211 50 -282 59 -475 59 -208 0 -323 -13 -490 -54 -104
-26 -154 -42 -299 -95 -144 -52 -455 -232 -639 -369 -205 -152 -537 -461 -548
-509 -6 -26 3 -38 97 -131 178 -175 412 -365 600 -487 44 -29 79 -55 79 -58 0
-4 -91 -67 -202 -141 -111 -74 -214 -145 -230 -158 -35 -30 -36 -65 -2 -98 31
-32 59 -27 124 18 25 17 250 169 500 336 250 168 682 458 960 646 630 424 869
585 1280 861 179 119 328 223 332 229 14 21 8 66 -12 86 -33 33 -63 24 -172
-51z m-1111 -179 c173 -30 529 -142 565 -178 5 -5 -37 -39 -97 -78 -59 -38
-113 -73 -121 -79 -10 -7 -23 0 -51 26 -369 351 -956 287 -1231 -134 -140
-214 -171 -485 -82 -718 11 -30 20 -59 20 -65 0 -6 -37 -36 -82 -67 -46 -31
-120 -81 -165 -111 -45 -31 -87 -56 -92 -56 -26 0 -264 164 -406 279 -110 89
-335 291 -335 300 0 14 212 205 354 319 319 257 627 424 944 512 194 55 289
68 484 69 134 1 204 -4 295 -19z m-103 -236 c33 -9 91 -31 130 -51 71 -36 186
-117 186 -132 0 -7 -1057 -719 -1082 -729 -13 -6 -38 63 -55 147 -28 145 4
326 82 456 45 75 159 191 230 234 149 91 337 118 509 75z"/>
<path d="M3671 3084 c-12 -15 -21 -34 -21 -42 0 -21 51 -64 235 -201 148 -109
226 -174 348 -288 38 -36 47 -52 47 -78 0 -28 -12 -44 -82 -111 -238 -224
-537 -442 -757 -553 -191 -97 -417 -175 -611 -212 -95 -18 -150 -22 -315 -22
-184 0 -212 2 -350 31 -83 17 -209 52 -280 77 -203 72 -192 70 -220 57 -31
-14 -43 -57 -24 -90 21 -37 232 -116 439 -165 248 -59 547 -63 817 -12 435 83
917 350 1338 741 181 168 245 238 245 265 0 25 -64 89 -270 272 -148 131 -230
197 -359 286 -117 79 -147 87 -180 45z"/>
<path d="M3156 2744 c-18 -18 -21 -63 -6 -114 47 -162 4 -373 -108 -536 -116
-170 -332 -283 -540 -284 -136 0 -267 42 -387 124 -37 25 -76 46 -86 46 -28 0
-59 -36 -59 -70 0 -24 10 -36 53 -68 168 -123 284 -162 477 -162 145 0 233 20
358 81 80 39 118 64 165 112 128 128 238 305 263 422 30 139 2 407 -47 448
-26 21 -63 22 -83 1z"/>
</g>
</svg>
