<svg width="241" height="49" viewBox="0 0 241 49" fill="none" xmlns="http://www.w3.org/2000/svg">
<mask id="mask0_2035_55" style="mask-type:alpha" maskUnits="userSpaceOnUse" x="0" y="0" width="49" height="49">
<rect width="49" height="49" fill="#FBFCFF"/>
</mask>
<g mask="url(#mask0_2035_55)">
<path d="M22.4582 33.4907V13.824C21.063 13.0254 19.5828 12.4264 18.0175 12.027C16.4523 11.6277 14.87 11.4281 13.2707 11.4281C12.0457 11.4281 10.8292 11.5445 9.62119 11.7775C8.41321 12.0104 7.24775 12.3598 6.12484 12.8257V32.5922C7.31581 32.1929 8.49827 31.8934 9.67223 31.6937C10.8462 31.4941 12.0457 31.3942 13.2707 31.3942C14.87 31.3942 16.4267 31.5689 17.941 31.9184C19.4552 32.2678 20.9609 32.7919 22.4582 33.4907ZM24.4998 39.3807C22.8665 38.1162 21.0971 37.1345 19.1915 36.4357C17.2859 35.7369 15.3123 35.3875 13.2707 35.3875C11.8415 35.3875 10.4379 35.5705 9.05973 35.9365C7.68161 36.3026 6.36303 36.8184 5.104 37.4839C4.38942 37.85 3.70036 37.8333 3.03682 37.434C2.37327 37.0347 2.0415 36.4523 2.0415 35.687V11.6277C2.0415 11.2617 2.13508 10.9123 2.32223 10.5795C2.50939 10.2467 2.79011 9.99715 3.16442 9.83077C4.7297 9.03212 6.36303 8.43313 8.06442 8.03381C9.76581 7.63449 11.5012 7.43482 13.2707 7.43482C15.7887 7.43482 17.9325 7.71768 19.7019 8.28339C21.4714 8.84909 23.3769 9.7143 25.4186 10.879C25.7929 11.0787 26.0736 11.3116 26.2608 11.5778C26.4479 11.844 26.5415 12.1934 26.5415 12.626V33.4907C28.0387 32.7919 29.5445 32.2678 31.0587 31.9184C32.5729 31.5689 34.1297 31.3942 35.729 31.3942C36.954 31.3942 38.1535 31.4941 39.3274 31.6937C40.5014 31.8934 41.6839 32.1929 42.8748 32.5922V8.58288C43.3853 8.74926 43.8872 8.93229 44.3806 9.13195C44.874 9.33161 45.3589 9.56455 45.8353 9.83077C46.2096 9.99715 46.4903 10.2467 46.6774 10.5795C46.8646 10.9123 46.9582 11.2617 46.9582 11.6277V35.687C46.9582 36.4523 46.6264 37.0347 45.9629 37.434C45.2993 37.8333 44.6103 37.85 43.8957 37.4839C42.6366 36.8184 41.3181 36.3026 39.9399 35.9365C38.5618 35.5705 37.1582 35.3875 35.729 35.3875C33.6873 35.3875 31.7137 35.7369 29.8082 36.4357C27.9026 37.1345 26.1332 38.1162 24.4998 39.3807ZM31.6457 27.401V5.43821L37.7707 3.44159V25.4044L31.6457 27.401Z" fill="#FBFCFF"/>
</g>
<path d="M59.64 39L72.12 11H78.52L91.04 39H84.24L74 14.28H76.56L66.28 39H59.64ZM65.88 33L67.6 28.08H82L83.76 33H65.88ZM106.225 39.32C104.412 39.32 102.825 38.92 101.465 38.12C100.105 37.32 99.0383 36.1067 98.265 34.48C97.5183 32.8267 97.145 30.7467 97.145 28.24C97.145 25.7067 97.505 23.6267 98.225 22C98.945 20.3733 99.985 19.16 101.345 18.36C102.705 17.56 104.332 17.16 106.225 17.16C108.252 17.16 110.065 17.6267 111.665 18.56C113.292 19.4667 114.572 20.7467 115.505 22.4C116.465 24.0533 116.945 26 116.945 28.24C116.945 30.5067 116.465 32.4667 115.505 34.12C114.572 35.7733 113.292 37.0533 111.665 37.96C110.065 38.8667 108.252 39.32 106.225 39.32ZM93.505 46.76V17.48H99.465V21.88L99.345 28.28L99.745 34.64V46.76H93.505ZM105.145 34.2C106.185 34.2 107.105 33.96 107.905 33.48C108.732 33 109.385 32.32 109.865 31.44C110.372 30.5333 110.625 29.4667 110.625 28.24C110.625 26.9867 110.372 25.92 109.865 25.04C109.385 24.16 108.732 23.48 107.905 23C107.105 22.52 106.185 22.28 105.145 22.28C104.105 22.28 103.172 22.52 102.345 23C101.518 23.48 100.865 24.16 100.385 25.04C99.905 25.92 99.665 26.9867 99.665 28.24C99.665 29.4667 99.905 30.5333 100.385 31.44C100.865 32.32 101.518 33 102.345 33.48C103.172 33.96 104.105 34.2 105.145 34.2ZM121.122 39V17.48H127.082V23.56L126.242 21.8C126.882 20.28 127.909 19.1333 129.322 18.36C130.736 17.56 132.456 17.16 134.482 17.16V22.92C134.216 22.8933 133.976 22.88 133.762 22.88C133.549 22.8533 133.322 22.84 133.082 22.84C131.376 22.84 129.989 23.3333 128.922 24.32C127.882 25.28 127.362 26.7867 127.362 28.84V39H121.122ZM148.716 39.32C146.263 39.32 144.103 38.84 142.236 37.88C140.396 36.92 138.97 35.6133 137.956 33.96C136.943 32.28 136.436 30.3733 136.436 28.24C136.436 26.08 136.93 24.1733 137.916 22.52C138.93 20.84 140.303 19.5333 142.036 18.6C143.77 17.64 145.73 17.16 147.916 17.16C150.023 17.16 151.916 17.6133 153.596 18.52C155.303 19.4 156.65 20.68 157.636 22.36C158.623 24.0133 159.116 26 159.116 28.32C159.116 28.56 159.103 28.84 159.076 29.16C159.05 29.4533 159.023 29.7333 158.996 30H141.516V26.36H155.716L153.316 27.44C153.316 26.32 153.09 25.3467 152.636 24.52C152.183 23.6933 151.556 23.0533 150.756 22.6C149.956 22.12 149.023 21.88 147.956 21.88C146.89 21.88 145.943 22.12 145.116 22.6C144.316 23.0533 143.69 23.7067 143.236 24.56C142.783 25.3867 142.556 26.3733 142.556 27.52V28.48C142.556 29.6533 142.81 30.6933 143.316 31.6C143.85 32.48 144.583 33.16 145.516 33.64C146.476 34.0933 147.596 34.32 148.876 34.32C150.023 34.32 151.023 34.1467 151.876 33.8C152.756 33.4533 153.556 32.9333 154.276 32.24L157.596 35.84C156.61 36.96 155.37 37.8267 153.876 38.44C152.383 39.0267 150.663 39.32 148.716 39.32ZM176.351 17.16C178.057 17.16 179.577 17.5067 180.911 18.2C182.271 18.8667 183.337 19.9067 184.111 21.32C184.884 22.7067 185.271 24.4933 185.271 26.68V39H179.031V27.64C179.031 25.9067 178.644 24.6267 177.871 23.8C177.124 22.9733 176.057 22.56 174.671 22.56C173.684 22.56 172.791 22.7733 171.991 23.2C171.217 23.6 170.604 24.2267 170.151 25.08C169.724 25.9333 169.511 27.0267 169.511 28.36V39H163.271V17.48H169.231V23.44L168.111 21.64C168.884 20.2 169.991 19.0933 171.431 18.32C172.871 17.5467 174.511 17.16 176.351 17.16ZM200.323 39.32C198.296 39.32 196.47 38.8667 194.843 37.96C193.216 37.0267 191.923 35.7333 190.963 34.08C190.03 32.4267 189.563 30.48 189.563 28.24C189.563 25.9733 190.03 24.0133 190.963 22.36C191.923 20.7067 193.216 19.4267 194.843 18.52C196.47 17.6133 198.296 17.16 200.323 17.16C202.136 17.16 203.723 17.56 205.083 18.36C206.443 19.16 207.496 20.3733 208.243 22C208.99 23.6267 209.363 25.7067 209.363 28.24C209.363 30.7467 209.003 32.8267 208.283 34.48C207.563 36.1067 206.523 37.32 205.163 38.12C203.83 38.92 202.216 39.32 200.323 39.32ZM201.403 34.2C202.416 34.2 203.336 33.96 204.163 33.48C204.99 33 205.643 32.32 206.123 31.44C206.63 30.5333 206.883 29.4667 206.883 28.24C206.883 26.9867 206.63 25.92 206.123 25.04C205.643 24.16 204.99 23.48 204.163 23C203.336 22.52 202.416 22.28 201.403 22.28C200.363 22.28 199.43 22.52 198.603 23C197.776 23.48 197.11 24.16 196.603 25.04C196.123 25.92 195.883 26.9867 195.883 28.24C195.883 29.4667 196.123 30.5333 196.603 31.44C197.11 32.32 197.776 33 198.603 33.48C199.43 33.96 200.363 34.2 201.403 34.2ZM207.043 39V34.6L207.163 28.2L206.763 21.84V9.32H213.003V39H207.043ZM231.978 39V34.8L231.578 33.88V26.36C231.578 25.0267 231.165 23.9867 230.338 23.24C229.538 22.4933 228.298 22.12 226.618 22.12C225.472 22.12 224.338 22.3067 223.218 22.68C222.125 23.0267 221.192 23.5067 220.418 24.12L218.178 19.76C219.352 18.9333 220.765 18.2933 222.418 17.84C224.072 17.3867 225.752 17.16 227.458 17.16C230.738 17.16 233.285 17.9333 235.098 19.48C236.912 21.0267 237.818 23.44 237.818 26.72V39H231.978ZM225.418 39.32C223.738 39.32 222.298 39.04 221.098 38.48C219.898 37.8933 218.978 37.1067 218.338 36.12C217.698 35.1333 217.378 34.0267 217.378 32.8C217.378 31.52 217.685 30.4 218.298 29.44C218.938 28.48 219.938 27.7333 221.298 27.2C222.658 26.64 224.432 26.36 226.618 26.36H232.338V30H227.298C225.832 30 224.818 30.24 224.258 30.72C223.725 31.2 223.458 31.8 223.458 32.52C223.458 33.32 223.765 33.96 224.378 34.44C225.018 34.8933 225.885 35.12 226.978 35.12C228.018 35.12 228.952 34.88 229.778 34.4C230.605 33.8933 231.205 33.16 231.578 32.2L232.538 35.08C232.085 36.4667 231.258 37.52 230.058 38.24C228.858 38.96 227.312 39.32 225.418 39.32Z" fill="#FBFCFF"/>
</svg>
