<svg width="677" height="471" viewBox="0 0 677 471" fill="none" xmlns="http://www.w3.org/2000/svg">
<path d="M0.365723 0L677 0V344.429L0.366135 396L0.365723 0Z" fill="#2737C7"/>
<g clip-path="url(#clip0_0_1)">
<path d="M470.58 171.841C470.563 181.624 467.645 191.183 462.195 199.308C456.745 207.433 449.008 213.76 439.963 217.488C430.917 221.216 420.97 222.178 411.377 220.252C401.785 218.326 392.98 213.599 386.074 206.669C379.168 199.739 374.473 190.916 372.581 181.318C370.689 171.719 371.687 161.774 375.447 152.742C379.207 143.71 385.56 135.996 393.705 130.575C401.849 125.154 411.418 122.269 421.202 122.287C427.702 122.281 434.14 123.561 440.145 126.051C446.15 128.542 451.603 132.195 456.192 136.8C460.78 141.405 464.413 146.871 466.883 152.884C469.352 158.898 470.609 165.34 470.58 171.841Z" fill="#F2F2F2"/>
<path d="M552.908 200.676L559.863 187.395C553.626 179.864 533.163 170.729 533.163 170.729L505.467 145.52C505.172 144.395 504.586 143.368 503.768 142.542C502.95 141.716 501.928 141.12 500.807 140.814C499.685 140.508 498.502 140.503 497.378 140.799C496.254 141.095 495.227 141.682 494.402 142.501C493.577 143.321 492.982 144.343 492.677 145.465C492.372 146.587 492.369 147.769 492.666 148.893C492.964 150.017 493.552 151.043 494.372 151.867C495.193 152.692 496.215 153.285 497.338 153.589L527.259 189.474L552.908 200.676Z" fill="#9E616A"/>
<path d="M549.539 199.759L559.36 202.886C566.502 205.16 574.198 204.989 581.231 202.4C583.359 201.607 585.222 200.236 586.611 198.44C588 196.645 588.859 194.496 589.092 192.238C589.386 189.174 588.506 186.114 586.629 183.674C584.753 181.235 582.02 179.599 578.984 179.098C569.774 177.584 557.907 176.838 553.673 181.876L553.63 181.927L549.539 199.759Z" fill="#3F3D56"/>
<path d="M478.899 240.417C506.218 240.417 528.365 218.27 528.365 190.95C528.365 163.631 506.218 141.484 478.899 141.484C451.579 141.484 429.432 163.631 429.432 190.95C429.432 218.27 451.579 240.417 478.899 240.417Z" fill="white"/>
<path d="M458.711 171.602C458.032 175.249 456.918 178.802 455.394 182.185C446.669 200.645 471.518 194.628 480.399 194.628C490.108 194.628 499.398 199.734 497.979 177.047C497.373 167.357 490.108 159.467 480.399 159.467C472.105 159.467 460.445 163.153 458.711 171.602Z" fill="#2F2E41"/>
<path d="M478.944 194.624C486.834 194.624 493.23 188.227 493.23 180.337C493.23 172.447 486.834 166.051 478.944 166.051C471.054 166.051 464.658 172.447 464.658 180.337C464.658 188.227 471.054 194.624 478.944 194.624Z" fill="#FFB6B6"/>
<path d="M469.242 165.775C471.746 164.248 474.613 163.423 477.545 163.384C480.477 163.346 483.365 164.095 485.908 165.555C488.45 167.015 490.554 169.131 491.999 171.682C493.444 174.233 494.178 177.125 494.122 180.056C486.843 181.884 479.195 183.283 471.432 180.494L469.599 176.007L468.518 180.497C466.154 181.463 463.783 182.281 461.413 180.488C461.316 177.564 461.988 174.667 463.362 172.085C464.736 169.503 466.764 167.327 469.242 165.775Z" fill="#2F2E41"/>
<path d="M517.361 223.842C508.791 233.593 496.73 239.583 483.782 240.519C470.834 241.455 458.037 237.261 448.154 228.844L452.397 217.005C453.356 214.902 454.869 213.1 456.774 211.792C458.679 210.483 460.905 209.718 463.211 209.579L465.911 209.413L472.347 203.862C472.347 203.862 489.689 203.243 489.432 202.946L499.936 209.265L499.927 209.221L504.057 209.474C506.364 209.613 508.589 210.378 510.495 211.686C512.4 212.995 513.913 214.797 514.871 216.9L517.361 223.842Z" fill="#1F2C9F"/>
<path d="M520.653 462.468L512.434 462.467L508.523 430.766H520.654L520.653 462.468Z" fill="#9E616A"/>
<path d="M522.749 470.435L496.247 470.434V470.099C496.247 467.363 497.334 464.74 499.269 462.805C501.203 460.871 503.827 459.784 506.562 459.784H506.563L511.404 456.111L520.436 459.784L522.749 459.785L522.749 470.435Z" fill="#2F2E41"/>
<path d="M593.09 462.468L584.871 462.467L580.961 430.766H593.092L593.09 462.468Z" fill="#9E616A"/>
<path d="M595.186 470.435L568.685 470.434V470.099C568.685 467.363 569.772 464.74 571.706 462.805C573.64 460.871 576.264 459.784 579 459.784H579L583.841 456.111L592.873 459.785L595.187 459.785L595.186 470.435Z" fill="#2F2E41"/>
<path d="M580.589 292.797L587.502 358.469C587.502 358.469 596.704 424.226 594.976 433.3C593.248 442.373 595.408 443.669 595.408 443.669L579.639 442.546C579.639 442.546 580.071 436.929 577.479 434.337C574.886 431.744 576.183 423.967 576.183 423.967L545.592 316.992L527.014 373.159C527.014 373.159 523.99 434.943 523.558 435.807C523.126 436.671 521.829 448.337 521.829 448.337H505.843C505.843 448.337 508.004 441.424 504.979 439.264C501.955 437.104 499.362 438.832 501.955 434.943C504.547 431.055 505.411 426.302 504.547 424.142C503.683 421.982 503.683 413.341 503.683 413.341C503.683 413.341 504.979 296.686 512.324 292.797C519.669 288.909 580.589 292.797 580.589 292.797Z" fill="#2F2E41"/>
<path d="M547.851 159.827C557.242 159.827 564.854 152.215 564.854 142.824C564.854 133.434 557.242 125.822 547.851 125.822C538.461 125.822 530.849 133.434 530.849 142.824C530.849 152.215 538.461 159.827 547.851 159.827Z" fill="#9E616A"/>
<path d="M586.465 299.955C553.537 306.755 509.901 295.064 509.901 295.064L521.541 244.605L517.403 191.799C516.898 185.341 520.576 179.288 526.298 177.143L534.198 174.183L540.729 164.834L559.383 165.446L566.84 175.262L572.725 178.384L585.483 185.15L585.539 185.178V185.206L581.535 224.042L579.121 247.457C579.121 247.457 586.454 273.793 584.949 277.286C583.444 280.773 584.753 279.088 585.118 280.953C585.483 282.817 586.6 282.935 586.769 286.607C586.943 290.274 586.465 299.955 586.465 299.955Z" fill="#3F3D56"/>
<path d="M626.271 471H371.917C371.766 470.999 371.622 470.939 371.515 470.832C371.409 470.726 371.349 470.581 371.349 470.43C371.349 470.28 371.409 470.135 371.515 470.028C371.622 469.921 371.766 469.861 371.917 469.861H626.271C626.422 469.861 626.567 469.921 626.674 470.027C626.781 470.134 626.841 470.279 626.841 470.43C626.841 470.581 626.781 470.726 626.674 470.833C626.567 470.94 626.422 471 626.271 471Z" fill="#000217"/>
<path d="M547.024 159.01C550.006 158.98 552.98 158.695 555.914 158.158C558.818 157.489 565.226 152.534 566.972 149.607C568.269 147.432 569.048 144.068 569.473 141.629C570.047 138.402 569.936 135.089 569.149 131.907C568.361 128.725 566.914 125.744 564.9 123.156C564.124 122.072 563.07 121.218 561.848 120.684C561.74 120.645 561.629 120.611 561.517 120.582C559.746 120.165 558.141 119.228 556.907 117.891C556.667 117.621 556.408 117.368 556.132 117.135C554.748 116.026 553.12 115.261 551.383 114.902C548.577 114.228 544.563 115.072 539.453 117.414C536.885 118.59 534.036 118.262 531.839 117.845C531.716 117.824 531.59 117.836 531.473 117.88C531.356 117.923 531.252 117.997 531.172 118.092C530.266 118.989 529.053 119.509 527.779 119.548C526.999 119.602 526.208 120.704 525.254 122.14C525.038 122.465 524.785 122.845 524.602 123.077L524.566 122.642L524.137 123.14C523.462 123.923 522.997 124.864 522.784 125.875C522.571 126.887 522.618 127.935 522.919 128.924C523.221 129.912 523.768 130.808 524.509 131.528C525.25 132.248 526.161 132.769 527.158 133.043C527.949 133.231 528.757 133.339 529.569 133.363C530.062 133.395 530.571 133.427 531.061 133.499C532.632 133.779 534.105 134.462 535.334 135.481C536.563 136.499 537.507 137.819 538.074 139.312C538.208 139.657 538.419 139.966 538.692 140.217C538.964 140.467 539.29 140.651 539.645 140.755C540 140.86 540.375 140.881 540.739 140.817C541.104 140.754 541.449 140.608 541.748 140.39C542.245 139.981 542.834 139.699 543.463 139.568C544.093 139.436 544.745 139.459 545.365 139.634C545.903 139.916 546.328 140.374 546.569 140.931C546.86 141.552 547.33 142.072 547.918 142.425C549.923 143.394 550.176 147.909 549.562 151.695C548.971 155.343 547.685 158.005 546.435 158.167C545.472 158.292 545.364 158.363 545.298 158.536L545.24 158.69L545.352 158.83C545.89 159.01 546.46 159.071 547.024 159.01Z" fill="#2F2E41"/>
<path d="M478.899 241.036C468.992 241.036 459.309 238.099 451.072 232.595C442.836 227.092 436.416 219.269 432.625 210.117C428.834 200.965 427.842 190.895 429.775 181.179C431.707 171.463 436.478 162.539 443.482 155.534C450.487 148.529 459.411 143.759 469.127 141.827C478.843 139.894 488.914 140.886 498.066 144.677C507.218 148.468 515.04 154.887 520.543 163.124C526.047 171.36 528.984 181.044 528.984 190.95C528.969 204.229 523.688 216.96 514.298 226.35C504.908 235.739 492.178 241.021 478.899 241.036ZM478.899 142.103C469.238 142.103 459.794 144.968 451.761 150.336C443.728 155.703 437.467 163.332 433.77 172.257C430.073 181.183 429.106 191.004 430.99 200.48C432.875 209.955 437.527 218.659 444.359 225.49C451.19 232.321 459.894 236.973 469.369 238.858C478.844 240.743 488.666 239.776 497.591 236.079C506.517 232.381 514.146 226.121 519.513 218.088C524.88 210.055 527.745 200.611 527.745 190.95C527.73 178 522.579 165.584 513.422 156.427C504.265 147.269 491.849 142.118 478.899 142.103Z" fill="#3F3D56"/>
<path d="M306.012 137.552C333.332 137.552 355.479 115.406 355.479 88.086C355.479 60.7665 333.332 38.6196 306.012 38.6196C278.693 38.6196 256.546 60.7665 256.546 88.086C256.546 115.406 278.693 137.552 306.012 137.552Z" fill="white"/>
<path d="M308.301 93.1318C317.21 93.1318 324.432 85.9101 324.432 77.0017C324.432 68.0933 317.21 60.8716 308.301 60.8716C299.393 60.8716 292.171 68.0933 292.171 77.0017C292.171 85.9101 299.393 93.1318 308.301 93.1318Z" fill="#FFB8B8"/>
<path d="M322.504 66.3459C322.504 66.3459 326.703 58.3173 317.464 57.5874C317.464 57.5874 309.587 50.4422 301.559 56.2811C301.559 56.2811 297.179 56.2811 294.785 61.2368C294.785 61.2368 291.34 59.9305 290.583 63.4264C290.583 63.4264 288.063 70.7251 290.583 77.294C293.104 83.8628 293.941 84.5927 293.941 84.5927C293.941 84.5927 292.173 76.4411 302.253 75.7112C312.333 74.9813 321.581 68.6665 322.421 76.695C323.261 84.7236 324.185 81.0968 324.185 81.0968C324.185 81.0968 332.164 69.6303 322.504 66.3459Z" fill="#2F2E41"/>
<path d="M343.213 120.978C334.643 130.729 322.582 136.719 309.634 137.655C296.686 138.591 283.889 134.397 274.006 125.98L278.249 114.141C279.208 112.038 280.721 110.236 282.626 108.928C284.531 107.619 286.757 106.854 289.063 106.715L291.763 106.549L298.199 100.998C298.199 100.998 315.541 100.379 315.284 100.082L325.788 106.401L325.779 106.357L329.909 106.61C332.216 106.749 334.441 107.514 336.347 108.822C338.252 110.13 339.765 111.933 340.723 114.036L343.213 120.978Z" fill="#1F2C9F"/>
<path d="M306.012 138.172C296.106 138.172 286.423 135.234 278.186 129.731C269.949 124.227 263.53 116.405 259.739 107.253C255.948 98.1011 254.956 88.0304 256.889 78.3147C258.821 68.599 263.591 59.6745 270.596 52.6699C277.601 45.6652 286.525 40.895 296.241 38.9624C305.957 37.0298 316.027 38.0217 325.179 41.8126C334.331 45.6035 342.154 52.0231 347.657 60.2597C353.161 68.4963 356.098 78.1799 356.098 88.086C356.083 101.365 350.801 114.096 341.412 123.485C332.022 132.875 319.291 138.157 306.012 138.172ZM306.012 39.2393C296.351 39.2393 286.907 42.1042 278.875 47.4715C270.842 52.8388 264.581 60.4676 260.884 69.3932C257.187 78.3187 256.219 88.1402 258.104 97.6155C259.989 107.091 264.641 115.794 271.472 122.626C278.304 129.457 287.007 134.109 296.483 135.994C305.958 137.879 315.78 136.912 324.705 133.214C333.631 129.517 341.259 123.257 346.627 115.224C351.994 107.191 354.859 97.747 354.859 88.086C354.844 75.1356 349.693 62.7198 340.536 53.5624C331.379 44.4051 318.963 39.254 306.012 39.2393Z" fill="#3F3D56"/>
<path d="M190.554 215.63C217.874 215.63 240.021 193.483 240.021 166.164C240.021 138.844 217.874 116.697 190.554 116.697C163.235 116.697 141.088 138.844 141.088 166.164C141.088 193.483 163.235 215.63 190.554 215.63Z" fill="white"/>
<path d="M167.627 150.072C169.673 143.553 174.324 137.575 180.757 135.371C187.19 133.167 196.61 136.524 201.446 141.344C210.292 150.161 212.451 180.449 206.373 190.02C205.164 189.956 200.993 189.909 199.769 189.863L198.038 184.094V189.806C196.089 189.746 194.125 189.704 192.145 189.681C185.507 189.599 179.159 186.946 174.437 182.281C169.714 177.616 166.984 171.301 166.821 164.665C166.663 158.316 166.821 152.641 167.627 150.072Z" fill="#2F2E41"/>
<path d="M189.821 171.677C197.607 171.677 203.918 165.365 203.918 157.579C203.918 149.793 197.607 143.481 189.821 143.481C182.035 143.481 175.723 149.793 175.723 157.579C175.723 165.365 182.035 171.677 189.821 171.677Z" fill="#9E616A"/>
<path d="M177.654 145.198L193.886 137.07C197.205 138.566 200.063 140.922 202.164 143.894C204.265 146.866 205.533 150.346 205.836 153.974L206.24 158.82L199.443 157.09L198.698 150.893L197.544 156.606L194.407 155.808L194.437 146.187L191.298 155.801L180.095 153.227L177.654 145.198Z" fill="#2F2E41"/>
<path d="M227.262 198.898C218.692 208.65 206.631 214.64 193.683 215.575C180.735 216.511 167.938 212.318 158.055 203.9L162.298 192.061C163.257 189.958 164.77 188.156 166.675 186.848C168.58 185.54 170.805 184.775 173.112 184.635L175.811 184.469L182.248 178.918C182.248 178.918 199.59 178.299 199.332 178.003L209.837 184.321L209.828 184.277L213.958 184.53C216.265 184.669 218.49 185.434 220.396 186.743C222.301 188.051 223.814 189.853 224.772 191.956L227.262 198.898Z" fill="#1F2C9F"/>
<path d="M190.555 216.25C180.649 216.25 170.965 213.312 162.728 207.809C154.492 202.305 148.072 194.483 144.281 185.331C140.49 176.179 139.499 166.108 141.431 156.392C143.364 146.677 148.134 137.752 155.139 130.748C162.143 123.743 171.068 118.973 180.783 117.04C190.499 115.107 200.57 116.099 209.722 119.89C218.874 123.681 226.696 130.101 232.2 138.337C237.703 146.574 240.641 156.258 240.641 166.164C240.626 179.443 235.344 192.173 225.954 201.563C216.565 210.953 203.834 216.235 190.555 216.25ZM190.555 117.317C180.894 117.317 171.45 120.182 163.417 125.549C155.384 130.916 149.123 138.545 145.426 147.471C141.729 156.396 140.762 166.218 142.647 175.693C144.531 185.168 149.184 193.872 156.015 200.703C162.846 207.535 171.55 212.187 181.025 214.072C190.501 215.956 200.322 214.989 209.248 211.292C218.173 207.595 225.802 201.334 231.169 193.301C236.537 185.269 239.401 175.825 239.401 166.164C239.387 153.213 234.236 140.797 225.078 131.64C215.921 122.483 203.505 117.332 190.555 117.317Z" fill="#3F3D56"/>
<path d="M524.584 216.613L517.096 203.625C507.395 204.858 488.72 217.244 488.72 217.244L452.597 227.128C451.489 226.775 450.308 226.719 449.172 226.968C448.036 227.216 446.986 227.759 446.126 228.542C445.267 229.326 444.629 230.321 444.277 231.43C443.925 232.538 443.871 233.719 444.121 234.855C444.37 235.99 444.915 237.04 445.699 237.898C446.483 238.757 447.48 239.393 448.588 239.744C449.697 240.095 450.878 240.147 452.014 239.897C453.149 239.646 454.198 239.1 455.056 238.315L501.386 232.271L524.584 216.613Z" fill="#9E616A"/>
<path d="M522.006 218.967L538.772 204.923L541.212 193.619C541.682 191.399 541.523 189.09 540.75 186.955C539.978 184.82 538.624 182.944 536.842 181.538C534.412 179.649 531.356 178.753 528.291 179.031C525.226 179.308 522.381 180.74 520.331 183.035C514.119 190.001 507.132 199.623 509.119 205.896L509.139 205.96L522.006 218.967Z" fill="#3F3D56"/>
<path d="M265.028 267.753H202.03C200.341 267.751 198.723 267.079 197.529 265.885C196.335 264.692 195.664 263.073 195.662 261.385V222.584C195.664 220.895 196.335 219.277 197.529 218.083C198.723 216.889 200.341 216.217 202.03 216.215H265.028C266.716 216.217 268.335 216.889 269.529 218.083C270.723 219.277 271.394 220.895 271.396 222.584V261.385C271.394 263.073 270.723 264.692 269.529 265.885C268.335 267.079 266.716 267.751 265.028 267.753Z" fill="#E6E6E6"/>
<path d="M239.998 262.755H206.458C204.877 262.753 203.361 262.124 202.243 261.006C201.124 259.888 200.495 258.372 200.494 256.791V227.177C200.495 225.596 201.124 224.08 202.243 222.962C203.361 221.844 204.877 221.215 206.458 221.213H260.6C262.181 221.215 263.697 221.844 264.815 222.962C265.933 224.08 266.562 225.596 266.564 227.177V236.189C266.556 243.233 263.754 249.985 258.774 254.965C253.793 259.946 247.041 262.747 239.998 262.755Z" fill="white"/>
<path d="M255.198 237.429H211.859C211.484 237.429 211.124 237.28 210.859 237.015C210.594 236.75 210.445 236.391 210.445 236.016C210.445 235.641 210.594 235.281 210.859 235.016C211.124 234.751 211.484 234.602 211.859 234.602H255.198C255.573 234.602 255.933 234.751 256.198 235.016C256.463 235.281 256.612 235.641 256.612 236.016C256.612 236.391 256.463 236.75 256.198 237.015C255.933 237.28 255.573 237.429 255.198 237.429Z" fill="#1F2C9F"/>
<path d="M218.638 243.014H211.859C211.484 243.014 211.124 242.865 210.859 242.6C210.594 242.335 210.445 241.976 210.445 241.601C210.445 241.226 210.594 240.866 210.859 240.601C211.124 240.336 211.484 240.187 211.859 240.187H218.638C219.013 240.187 219.373 240.336 219.638 240.601C219.903 240.866 220.052 241.226 220.052 241.601C220.052 241.976 219.903 242.335 219.638 242.6C219.373 242.865 219.013 243.014 218.638 243.014Z" fill="#1F2C9F"/>
<path d="M230.645 248.6H211.859C211.484 248.599 211.126 248.449 210.861 248.184C210.597 247.919 210.448 247.56 210.448 247.186C210.448 246.812 210.597 246.453 210.861 246.188C211.126 245.923 211.484 245.773 211.859 245.772H230.645C231.02 245.773 231.379 245.923 231.643 246.188C231.908 246.453 232.056 246.812 232.056 247.186C232.056 247.56 231.908 247.919 231.643 248.184C231.379 248.449 231.02 248.599 230.645 248.6Z" fill="#1F2C9F"/>
<path d="M193.463 228.769C200.823 228.769 206.79 222.803 206.79 215.443C206.79 208.083 200.823 202.116 193.463 202.116C186.103 202.116 180.137 208.083 180.137 215.443C180.137 222.803 186.103 228.769 193.463 228.769Z" fill="#3F3D56"/>
<path d="M428.619 91.7681H365.621C363.933 91.7662 362.314 91.0947 361.12 89.9008C359.926 88.707 359.255 87.0883 359.253 85.4V46.599C359.255 44.9106 359.926 43.292 361.12 42.0981C362.314 40.9043 363.933 40.2327 365.621 40.2308H428.619C430.308 40.2327 431.926 40.9043 433.12 42.0981C434.314 43.292 434.985 44.9106 434.987 46.599V85.3999C434.985 87.0883 434.314 88.707 433.12 89.9008C431.926 91.0947 430.308 91.7662 428.619 91.7681Z" fill="#E6E6E6"/>
<path d="M403.589 86.7703H370.049C368.468 86.7686 366.952 86.1397 365.834 85.0216C364.716 83.9035 364.087 82.3876 364.085 80.8064V51.1926C364.087 49.6114 364.716 48.0954 365.834 46.9774C366.952 45.8593 368.468 45.2304 370.049 45.2286H424.191C425.772 45.2304 427.288 45.8593 428.406 46.9774C429.524 48.0955 430.153 49.6114 430.155 51.1926V60.2047C430.147 67.2479 427.345 74.0004 422.365 78.9807C417.385 83.961 410.632 86.7624 403.589 86.7703Z" fill="white"/>
<path d="M418.79 61.4445H375.45C375.075 61.4445 374.716 61.2955 374.451 61.0305C374.186 60.7654 374.037 60.4059 374.037 60.031C374.037 59.6561 374.186 59.2966 374.451 59.0315C374.716 58.7665 375.075 58.6176 375.45 58.6176H418.79C419.165 58.6176 419.524 58.7665 419.789 59.0315C420.054 59.2966 420.203 59.6561 420.203 60.031C420.203 60.4059 420.054 60.7654 419.789 61.0305C419.524 61.2955 419.165 61.4445 418.79 61.4445Z" fill="#1F2C9F"/>
<path d="M382.23 67.0297H375.45C375.075 67.0297 374.716 66.8807 374.451 66.6157C374.186 66.3506 374.037 65.991 374.037 65.6162C374.037 65.2413 374.186 64.8817 374.451 64.6166C374.716 64.3516 375.075 64.2026 375.45 64.2026H382.23C382.604 64.2026 382.964 64.3516 383.229 64.6166C383.494 64.8817 383.643 65.2413 383.643 65.6162C383.643 65.991 383.494 66.3506 383.229 66.6157C382.964 66.8807 382.604 67.0297 382.23 67.0297Z" fill="#1F2C9F"/>
<path d="M394.237 72.6149H375.45C375.076 72.6141 374.717 72.4648 374.452 72.1998C374.188 71.9348 374.04 71.5757 374.04 71.2014C374.04 70.827 374.188 70.4679 374.452 70.2029C374.717 69.9379 375.076 69.7886 375.45 69.7878H394.237C394.612 69.7878 394.971 69.9368 395.236 70.2019C395.501 70.4669 395.65 70.8265 395.65 71.2014C395.65 71.5762 395.501 71.9358 395.236 72.2009C394.971 72.466 394.612 72.6149 394.237 72.6149Z" fill="#1F2C9F"/>
<path d="M357.055 99.2595C364.415 99.2595 370.381 93.293 370.381 85.9329C370.381 78.5728 364.415 72.6063 357.055 72.6063C349.695 72.6063 343.728 78.5728 343.728 85.9329C343.728 93.293 349.695 99.2595 357.055 99.2595Z" fill="#3F3D56"/>
</g>
<defs>
<clipPath id="clip0_0_1">
<rect width="499.841" height="433" fill="white" transform="translate(127 38)"/>
</clipPath>
</defs>
</svg>
