<svg width="114" height="200" viewBox="0 0 114 200" fill="none" xmlns="http://www.w3.org/2000/svg">
<rect width="114" height="200" fill="#2737C7"/>
<mask id="mask0_0_1" style="mask-type:alpha" maskUnits="userSpaceOnUse" x="7" y="50" width="100" height="100">
<rect x="7" y="50" width="100" height="100" fill="#F3F6FF"/>
</mask>
<g mask="url(#mask0_0_1)">
<path d="M47.625 137.5C44.0833 137.5 41.0278 136.267 38.4583 133.802C35.8889 131.337 34.4306 128.368 34.0833 124.896C29.9167 124.34 26.4444 122.5 23.6667 119.375C20.8889 116.25 19.5 112.569 19.5 108.333C19.5 106.875 19.691 105.434 20.0729 104.01C20.4549 102.587 21.0278 101.25 21.7917 100C21.0278 98.75 20.4549 97.4306 20.0729 96.0417C19.691 94.6528 19.5 93.1944 19.5 91.6667C19.5 87.4306 20.8889 83.7674 23.6667 80.6771C26.4444 77.5868 29.8819 75.7639 33.9792 75.2083C34.1875 71.6667 35.6111 68.6632 38.25 66.1979C40.8889 63.7326 44.0139 62.5 47.625 62.5C49.4306 62.5 51.1146 62.8472 52.6771 63.5417C54.2396 64.2361 55.6806 65.1736 57 66.3542C58.25 65.1736 59.6736 64.2361 61.2708 63.5417C62.8681 62.8472 64.5694 62.5 66.375 62.5C69.9861 62.5 73.0938 63.7153 75.6979 66.1458C78.3021 68.5764 79.7083 71.5625 79.9167 75.1042C84.0139 75.6597 87.4688 77.5 90.2812 80.625C93.0938 83.75 94.5 87.4306 94.5 91.6667C94.5 93.1944 94.309 94.6528 93.9271 96.0417C93.5451 97.4306 92.9722 98.75 92.2083 100C92.9722 101.25 93.5451 102.587 93.9271 104.01C94.309 105.434 94.5 106.875 94.5 108.333C94.5 112.639 93.0938 116.337 90.2812 119.427C87.4688 122.517 83.9792 124.34 79.8125 124.896C79.4653 128.368 78.0243 131.337 75.4896 133.802C72.9549 136.267 69.9167 137.5 66.375 137.5C64.6389 137.5 62.9549 137.17 61.3229 136.51C59.691 135.851 58.25 134.931 57 133.75C55.6806 134.931 54.2222 135.851 52.625 136.51C51.0278 137.17 49.3611 137.5 47.625 137.5ZM61.1667 76.0417V123.958C61.1667 125.417 61.6701 126.649 62.6771 127.656C63.684 128.663 64.9167 129.167 66.375 129.167C67.7639 129.167 68.9618 128.611 69.9688 127.5C70.9757 126.389 71.5139 125.139 71.5833 123.75C70.125 123.194 68.7882 122.448 67.5729 121.51C66.3576 120.573 65.2639 119.444 64.2917 118.125C63.5972 117.153 63.3368 116.111 63.5104 115C63.684 113.889 64.2569 112.986 65.2292 112.292C66.2014 111.597 67.2431 111.337 68.3542 111.51C69.4653 111.684 70.3681 112.257 71.0625 113.229C71.8264 114.34 72.7986 115.191 73.9792 115.781C75.1597 116.372 76.4444 116.667 77.8333 116.667C80.125 116.667 82.0868 115.851 83.7188 114.219C85.3507 112.587 86.1667 110.625 86.1667 108.333C86.1667 107.986 86.1493 107.639 86.1146 107.292C86.0799 106.944 85.9931 106.597 85.8542 106.25C84.6736 106.944 83.4062 107.465 82.0521 107.812C80.6979 108.16 79.2917 108.333 77.8333 108.333C76.6528 108.333 75.6632 107.934 74.8646 107.135C74.066 106.337 73.6667 105.347 73.6667 104.167C73.6667 102.986 74.066 101.997 74.8646 101.198C75.6632 100.399 76.6528 100 77.8333 100C80.125 100 82.0868 99.184 83.7188 97.5521C85.3507 95.9201 86.1667 93.9583 86.1667 91.6667C86.1667 89.375 85.3507 87.4306 83.7188 85.8333C82.0868 84.2361 80.125 83.4028 77.8333 83.3333C77.0694 84.5833 76.0799 85.6771 74.8646 86.6146C73.6493 87.5521 72.3125 88.2986 70.8542 88.8542C69.7431 89.2708 68.6667 89.2361 67.625 88.75C66.5833 88.2639 65.8889 87.4653 65.5417 86.3542C65.1944 85.2431 65.2465 84.1667 65.6979 83.125C66.1493 82.0833 66.9306 81.3889 68.0417 81.0417C69.0833 80.6944 69.934 80.0694 70.5937 79.1667C71.2535 78.2639 71.5833 77.2222 71.5833 76.0417C71.5833 74.5833 71.0799 73.3507 70.0729 72.3437C69.066 71.3368 67.8333 70.8333 66.375 70.8333C64.9167 70.8333 63.684 71.3368 62.6771 72.3437C61.6701 73.3507 61.1667 74.5833 61.1667 76.0417ZM52.8333 123.958V76.0417C52.8333 74.5833 52.3299 73.3507 51.3229 72.3437C50.316 71.3368 49.0833 70.8333 47.625 70.8333C46.1667 70.8333 44.934 71.3368 43.9271 72.3437C42.9201 73.3507 42.4167 74.5833 42.4167 76.0417C42.4167 77.1528 42.7292 78.1771 43.3542 79.1146C43.9792 80.0521 44.8125 80.6944 45.8542 81.0417C46.9653 81.3889 47.7639 82.0833 48.25 83.125C48.7361 84.1667 48.8056 85.2431 48.4583 86.3542C48.0417 87.4653 47.3125 88.2639 46.2708 88.75C45.2292 89.2361 44.1528 89.2708 43.0417 88.8542C41.5833 88.2986 40.2465 87.5521 39.0312 86.6146C37.816 85.6771 36.8264 84.5833 36.0625 83.3333C33.8403 83.4028 31.9132 84.2535 30.2812 85.8854C28.6493 87.5174 27.8333 89.4444 27.8333 91.6667C27.8333 93.9583 28.6493 95.9201 30.2812 97.5521C31.9132 99.184 33.875 100 36.1667 100C37.3472 100 38.3368 100.399 39.1354 101.198C39.934 101.997 40.3333 102.986 40.3333 104.167C40.3333 105.347 39.934 106.337 39.1354 107.135C38.3368 107.934 37.3472 108.333 36.1667 108.333C34.7083 108.333 33.3021 108.16 31.9479 107.812C30.5937 107.465 29.3264 106.944 28.1458 106.25C28.0069 106.597 27.9201 106.944 27.8854 107.292C27.8507 107.639 27.8333 107.986 27.8333 108.333C27.8333 110.625 28.6493 112.587 30.2812 114.219C31.9132 115.851 33.875 116.667 36.1667 116.667C37.5556 116.667 38.8403 116.372 40.0208 115.781C41.2014 115.191 42.1736 114.34 42.9375 113.229C43.6319 112.257 44.5347 111.684 45.6458 111.51C46.7569 111.337 47.7986 111.597 48.7708 112.292C49.7431 112.986 50.316 113.889 50.4896 115C50.6632 116.111 50.4028 117.153 49.7083 118.125C48.7361 119.444 47.625 120.59 46.375 121.562C45.125 122.535 43.7708 123.299 42.3125 123.854C42.3819 125.243 42.9375 126.476 43.9792 127.552C45.0208 128.628 46.2361 129.167 47.625 129.167C49.0833 129.167 50.316 128.663 51.3229 127.656C52.3299 126.649 52.8333 125.417 52.8333 123.958Z" fill="#F3F6FF"/>
</g>
</svg>
