<svg width="100" height="100" viewBox="0 0 100 100" fill="none" xmlns="http://www.w3.org/2000/svg">
<mask id="mask0_2094_144" style="mask-type:alpha" maskUnits="userSpaceOnUse" x="0" y="0" width="100" height="100">
<rect width="100" height="100" fill="#F3F6FF"/>
</mask>
<g mask="url(#mask0_2094_144)">
<path d="M40.625 87.5C37.0833 87.5 34.0278 86.2674 31.4583 83.8021C28.8889 81.3368 27.4306 78.3681 27.0833 74.8958C22.9167 74.3403 19.4444 72.5 16.6667 69.375C13.8889 66.25 12.5 62.5694 12.5 58.3333C12.5 56.875 12.691 55.434 13.0729 54.0104C13.4549 52.5868 14.0278 51.25 14.7917 50C14.0278 48.75 13.4549 47.4306 13.0729 46.0417C12.691 44.6528 12.5 43.1944 12.5 41.6667C12.5 37.4306 13.8889 33.7674 16.6667 30.6771C19.4444 27.5868 22.8819 25.7639 26.9792 25.2083C27.1875 21.6667 28.6111 18.6632 31.25 16.1979C33.8889 13.7326 37.0139 12.5 40.625 12.5C42.4306 12.5 44.1146 12.8472 45.6771 13.5417C47.2396 14.2361 48.6806 15.1736 50 16.3542C51.25 15.1736 52.6736 14.2361 54.2708 13.5417C55.8681 12.8472 57.5694 12.5 59.375 12.5C62.9861 12.5 66.0938 13.7153 68.6979 16.1458C71.3021 18.5764 72.7083 21.5625 72.9167 25.1042C77.0139 25.6597 80.4688 27.5 83.2812 30.625C86.0938 33.75 87.5 37.4306 87.5 41.6667C87.5 43.1944 87.309 44.6528 86.9271 46.0417C86.5451 47.4306 85.9722 48.75 85.2083 50C85.9722 51.25 86.5451 52.5868 86.9271 54.0104C87.309 55.434 87.5 56.875 87.5 58.3333C87.5 62.6389 86.0938 66.3368 83.2812 69.4271C80.4688 72.5174 76.9792 74.3403 72.8125 74.8958C72.4653 78.3681 71.0243 81.3368 68.4896 83.8021C65.9549 86.2674 62.9167 87.5 59.375 87.5C57.6389 87.5 55.9549 87.1701 54.3229 86.5104C52.691 85.8507 51.25 84.9306 50 83.75C48.6806 84.9306 47.2222 85.8507 45.625 86.5104C44.0278 87.1701 42.3611 87.5 40.625 87.5ZM54.1667 26.0417V73.9583C54.1667 75.4167 54.6701 76.6493 55.6771 77.6562C56.684 78.6632 57.9167 79.1667 59.375 79.1667C60.7639 79.1667 61.9618 78.6111 62.9688 77.5C63.9757 76.3889 64.5139 75.1389 64.5833 73.75C63.125 73.1944 61.7882 72.4479 60.5729 71.5104C59.3576 70.5729 58.2639 69.4444 57.2917 68.125C56.5972 67.1528 56.3368 66.1111 56.5104 65C56.684 63.8889 57.2569 62.9861 58.2292 62.2917C59.2014 61.5972 60.2431 61.3368 61.3542 61.5104C62.4653 61.684 63.3681 62.2569 64.0625 63.2292C64.8264 64.3403 65.7986 65.191 66.9792 65.7812C68.1597 66.3715 69.4444 66.6667 70.8333 66.6667C73.125 66.6667 75.0868 65.8507 76.7188 64.2188C78.3507 62.5868 79.1667 60.625 79.1667 58.3333C79.1667 57.9861 79.1493 57.6389 79.1146 57.2917C79.0799 56.9444 78.9931 56.5972 78.8542 56.25C77.6736 56.9444 76.4062 57.4653 75.0521 57.8125C73.6979 58.1597 72.2917 58.3333 70.8333 58.3333C69.6528 58.3333 68.6632 57.934 67.8646 57.1354C67.066 56.3368 66.6667 55.3472 66.6667 54.1667C66.6667 52.9861 67.066 51.9965 67.8646 51.1979C68.6632 50.3993 69.6528 50 70.8333 50C73.125 50 75.0868 49.184 76.7188 47.5521C78.3507 45.9201 79.1667 43.9583 79.1667 41.6667C79.1667 39.375 78.3507 37.4306 76.7188 35.8333C75.0868 34.2361 73.125 33.4028 70.8333 33.3333C70.0694 34.5833 69.0799 35.6771 67.8646 36.6146C66.6493 37.5521 65.3125 38.2986 63.8542 38.8542C62.7431 39.2708 61.6667 39.2361 60.625 38.75C59.5833 38.2639 58.8889 37.4653 58.5417 36.3542C58.1944 35.2431 58.2465 34.1667 58.6979 33.125C59.1493 32.0833 59.9306 31.3889 61.0417 31.0417C62.0833 30.6944 62.934 30.0694 63.5937 29.1667C64.2535 28.2639 64.5833 27.2222 64.5833 26.0417C64.5833 24.5833 64.0799 23.3507 63.0729 22.3437C62.066 21.3368 60.8333 20.8333 59.375 20.8333C57.9167 20.8333 56.684 21.3368 55.6771 22.3437C54.6701 23.3507 54.1667 24.5833 54.1667 26.0417ZM45.8333 73.9583V26.0417C45.8333 24.5833 45.3299 23.3507 44.3229 22.3437C43.316 21.3368 42.0833 20.8333 40.625 20.8333C39.1667 20.8333 37.934 21.3368 36.9271 22.3437C35.9201 23.3507 35.4167 24.5833 35.4167 26.0417C35.4167 27.1528 35.7292 28.1771 36.3542 29.1146C36.9792 30.0521 37.8125 30.6944 38.8542 31.0417C39.9653 31.3889 40.7639 32.0833 41.25 33.125C41.7361 34.1667 41.8056 35.2431 41.4583 36.3542C41.0417 37.4653 40.3125 38.2639 39.2708 38.75C38.2292 39.2361 37.1528 39.2708 36.0417 38.8542C34.5833 38.2986 33.2465 37.5521 32.0312 36.6146C30.816 35.6771 29.8264 34.5833 29.0625 33.3333C26.8403 33.4028 24.9132 34.2535 23.2812 35.8854C21.6493 37.5174 20.8333 39.4444 20.8333 41.6667C20.8333 43.9583 21.6493 45.9201 23.2812 47.5521C24.9132 49.184 26.875 50 29.1667 50C30.3472 50 31.3368 50.3993 32.1354 51.1979C32.934 51.9965 33.3333 52.9861 33.3333 54.1667C33.3333 55.3472 32.934 56.3368 32.1354 57.1354C31.3368 57.934 30.3472 58.3333 29.1667 58.3333C27.7083 58.3333 26.3021 58.1597 24.9479 57.8125C23.5937 57.4653 22.3264 56.9444 21.1458 56.25C21.0069 56.5972 20.9201 56.9444 20.8854 57.2917C20.8507 57.6389 20.8333 57.9861 20.8333 58.3333C20.8333 60.625 21.6493 62.5868 23.2812 64.2188C24.9132 65.8507 26.875 66.6667 29.1667 66.6667C30.5556 66.6667 31.8403 66.3715 33.0208 65.7812C34.2014 65.191 35.1736 64.3403 35.9375 63.2292C36.6319 62.2569 37.5347 61.684 38.6458 61.5104C39.7569 61.3368 40.7986 61.5972 41.7708 62.2917C42.7431 62.9861 43.316 63.8889 43.4896 65C43.6632 66.1111 43.4028 67.1528 42.7083 68.125C41.7361 69.4444 40.625 70.5903 39.375 71.5625C38.125 72.5347 36.7708 73.2986 35.3125 73.8542C35.3819 75.2431 35.9375 76.4757 36.9792 77.5521C38.0208 78.6285 39.2361 79.1667 40.625 79.1667C42.0833 79.1667 43.316 78.6632 44.3229 77.6562C45.3299 76.6493 45.8333 75.4167 45.8333 73.9583Z" fill="#F3F6FF"/>
</g>
</svg>
