<svg width="100" height="100" viewBox="0 0 100 100" fill="none" xmlns="http://www.w3.org/2000/svg">
<mask id="mask0_2094_150" style="mask-type:alpha" maskUnits="userSpaceOnUse" x="0" y="0" width="100" height="100">
<rect width="100" height="100" fill="#F3F6FF"/>
</mask>
<g mask="url(#mask0_2094_150)">
<path d="M23.5415 41.7708L31.6665 45.2083C32.6387 43.2638 33.6457 41.3888 34.6873 39.5833C35.729 37.7777 36.8748 35.9722 38.1248 34.1666L32.2915 33.0208L23.5415 41.7708ZM38.3332 50.4166L50.2082 62.1874C53.1248 61.0763 56.2498 59.375 59.5832 57.0833C62.9165 54.7916 66.0415 52.1875 68.9582 49.2708C73.8193 44.4097 77.6214 39.0104 80.3644 33.0729C83.1075 27.1354 84.3054 21.6666 83.9582 16.6666C78.9582 16.3194 73.4721 17.5173 67.4998 20.2604C61.5276 23.0034 56.1109 26.8055 51.2498 31.6666C48.3332 34.5833 45.729 37.7083 43.4373 41.0416C41.1457 44.375 39.4443 47.5 38.3332 50.4166ZM56.8748 43.6458C55.2776 42.0486 54.479 40.0868 54.479 37.7604C54.479 35.434 55.2776 33.4722 56.8748 31.875C58.4721 30.2777 60.4512 29.4791 62.8123 29.4791C65.1734 29.4791 67.1526 30.2777 68.7498 31.875C70.3471 33.4722 71.1457 35.434 71.1457 37.7604C71.1457 40.0868 70.3471 42.0486 68.7498 43.6458C67.1526 45.243 65.1734 46.0416 62.8123 46.0416C60.4512 46.0416 58.4721 45.243 56.8748 43.6458ZM58.854 77.0833L67.604 68.3333L66.4582 62.5C64.6526 63.75 62.8471 64.8784 61.0415 65.8854C59.2359 66.8923 57.3609 67.8819 55.4165 68.8541L58.854 77.0833ZM91.4582 9.06245C92.7776 17.4652 91.9616 25.6423 89.0103 33.5937C86.0589 41.5451 80.9721 49.1319 73.7498 56.3541L75.8332 66.6666C76.1109 68.0555 76.0415 69.4097 75.6248 70.7291C75.2082 72.0486 74.5137 73.1944 73.5415 74.1666L56.0415 91.6666L47.2915 71.1458L29.479 53.3333L8.95817 44.5833L26.354 27.0833C27.3262 26.1111 28.4894 25.4166 29.8436 25C31.1978 24.5833 32.5693 24.5138 33.9582 24.7916L44.2707 26.875C51.4929 19.6527 59.0623 14.5486 66.979 11.5625C74.8957 8.57634 83.0554 7.74301 91.4582 9.06245ZM16.354 66.5624C18.7846 64.1319 21.7533 62.8993 25.2603 62.8645C28.7672 62.8298 31.7359 64.0277 34.1665 66.4583C36.5971 68.8888 37.795 71.8576 37.7603 75.3645C37.7255 78.8715 36.4929 81.8402 34.0623 84.2708C32.3262 86.0069 29.4269 87.5 25.3644 88.75C21.3019 90 15.6943 91.1111 8.5415 92.0833C9.51373 84.9305 10.6248 79.3229 11.8748 75.2604C13.1248 71.1979 14.6179 68.2986 16.354 66.5624ZM22.2915 72.3958C21.5971 73.0902 20.9026 74.3576 20.2082 76.1979C19.5137 78.0381 19.0276 79.8958 18.7498 81.7708C20.6248 81.493 22.4825 81.0243 24.3228 80.3645C26.163 79.7048 27.4304 79.0277 28.1248 78.3333C28.9582 77.5 29.4096 76.493 29.479 75.3124C29.5484 74.1319 29.1665 73.1249 28.3332 72.2916C27.4998 71.4583 26.4929 71.059 25.3123 71.0937C24.1318 71.1284 23.1248 71.5625 22.2915 72.3958Z" fill="#F3F6FF"/>
</g>
</svg>
