<svg width="715" height="500" viewBox="0 0 715 500" fill="none" xmlns="http://www.w3.org/2000/svg">
<path d="M0 0H709.651C709.651 0 715.148 51.4139 705.903 65.874C696.657 80.3342 683.164 91.9023 702.155 131.748C721.145 171.594 679.666 191.517 679.666 191.517C679.666 191.517 593.208 204.37 657.177 251.285C721.145 298.201 556.726 365.681 649.181 378.535C741.635 391.388 709.651 500 709.651 500H0V0Z" fill="#3D4BCD"/>
<ellipse cx="421" cy="369.5" rx="69" ry="69.5" fill="#1F2C9F"/>
<circle cx="251.5" cy="235.5" r="194.5" fill="#2737C7"/>
<g clip-path="url(#clip0_0_1)">
<path d="M376.658 341.946H118.836C114.053 341.941 110.177 338.067 110.171 333.286V123.448C110.177 118.667 114.053 114.793 118.836 114.787H376.658C381.442 114.793 385.318 118.667 385.323 123.448V333.286C385.318 338.067 381.442 341.941 376.658 341.946Z" fill="#1F2C9F"/>
<path d="M351.608 336.105H124.682C119.899 336.099 116.023 332.225 116.018 327.444V129.295C116.023 124.514 119.899 120.639 124.682 120.634H370.814C375.597 120.639 379.473 124.514 379.479 129.295V308.246C379.462 323.625 366.994 336.087 351.608 336.105Z" fill="white"/>
<path d="M289.249 165.439H185.624C184.39 165.439 183.39 164.439 183.39 163.205C183.39 161.971 184.39 160.971 185.624 160.971H289.249C290.483 160.971 291.484 161.971 291.484 163.205C291.484 164.439 290.483 165.439 289.249 165.439Z" fill="#1F2C9F"/>
<path d="M341.706 189.27H185.624C184.39 189.27 183.39 188.27 183.39 187.036C183.39 185.803 184.39 184.803 185.624 184.803H341.706C342.94 184.803 343.941 185.803 343.941 187.036C343.941 188.27 342.94 189.27 341.706 189.27Z" fill="#E6E6E6"/>
<path d="M341.706 213.102H185.624C184.39 213.102 183.39 212.102 183.39 210.868C183.39 209.634 184.39 208.634 185.624 208.634H341.706C342.94 208.634 343.941 209.634 343.941 210.868C343.941 212.102 342.94 213.102 341.706 213.102Z" fill="#E6E6E6"/>
<path d="M341.706 236.933H185.624C184.39 236.933 183.39 235.933 183.39 234.699C183.39 233.466 184.39 232.466 185.624 232.466H341.706C342.94 232.466 343.941 233.466 343.941 234.699C343.941 235.933 342.94 236.933 341.706 236.933Z" fill="#E6E6E6"/>
<path d="M341.706 260.765H185.624C184.39 260.765 183.39 259.765 183.39 258.531C183.39 257.297 184.39 256.297 185.624 256.297H341.706C342.94 256.297 343.941 257.297 343.941 258.531C343.941 259.765 342.94 260.765 341.706 260.765Z" fill="#E6E6E6"/>
<path d="M334.687 298.742C328.438 298.742 323.372 293.678 323.372 287.431C323.372 281.185 328.438 276.121 334.687 276.121C340.936 276.121 346.002 281.185 346.002 287.431C346.002 293.678 340.936 298.742 334.687 298.742Z" fill="#1F2C9F"/>
<path d="M341.053 286.894L337.845 282.214C337.549 281.78 336.958 281.668 336.523 281.964C336.089 282.259 335.977 282.851 336.273 283.285L336.276 283.289L338.35 286.316H330.223C329.606 286.314 329.105 286.812 329.103 287.428C329.101 288.044 329.599 288.545 330.216 288.547H338.452L336.276 291.723C335.981 292.157 336.094 292.749 336.528 293.044C336.961 293.337 337.548 293.227 337.845 292.798L341.053 288.118C341.266 287.737 341.266 287.274 341.053 286.894Z" fill="white"/>
<path d="M136.697 310.494C138.41 309.061 138.637 306.512 137.203 304.8C137.051 304.617 136.882 304.448 136.699 304.296L134.246 283.107L126.457 284.909L130.785 304.995C129.46 306.807 129.855 309.349 131.668 310.674C133.184 311.783 135.263 311.708 136.697 310.494Z" fill="#FFB6B6"/>
<path d="M135.892 286.562L126.874 292.185C126.874 292.185 126.325 295.481 125.705 287.198C125.64 286.334 126.243 284.827 126.177 283.94C126.102 282.939 123.233 282.483 123.158 281.47C123.104 280.749 123.933 280.108 123.88 279.389C123.799 278.3 123.718 277.216 123.639 276.151C123.573 275.259 122.585 274.694 122.521 273.834C122.457 272.966 123.317 271.803 123.256 270.981C122.802 264.815 124.374 249.303 124.374 248.987C124.252 248.195 123.921 247.45 123.415 246.829L123.897 245.39L123.578 242.69C123.16 239.142 123.906 235.554 125.705 232.467L127.995 230.968L138.563 248.735C134.116 264.109 131.213 270.148 135.892 286.562Z" fill="#1F2C9F"/>
<path d="M128.855 419.033H134.31L136.907 398H128.855V419.033Z" fill="#FFB6B6"/>
<path d="M127.075 415.298L135.79 414.778V418.51L144.076 424.23C145.136 424.962 145.402 426.414 144.67 427.473C144.235 428.104 143.517 428.48 142.751 428.48H132.375L130.586 424.788L129.888 428.48H125.976L127.075 415.298Z" fill="#2F2E41"/>
<path d="M159.499 419.033H164.954L167.55 398H159.499V419.033Z" fill="#FFB6B6"/>
<path d="M157.718 415.298L166.434 414.778V418.51L174.72 424.23C175.78 424.962 176.046 426.414 175.314 427.473C174.878 428.104 174.161 428.48 173.394 428.48H163.018L161.23 424.788L160.531 428.48H156.619L157.718 415.298Z" fill="#2F2E41"/>
<path d="M126.54 400.895H126.561L127.61 350.807C126.231 348.148 126.275 344.976 127.727 342.357L127.877 342.085L127.488 340.28C126.988 337.962 127.217 335.546 128.145 333.363L129.124 301.463C125.627 278.812 142.292 264.039 142.292 264.039H167.255L172.614 282.444C176.157 316.947 175.515 366.459 169.892 399.033L170.046 399.11C170.649 399.447 170.882 400.198 170.574 400.817C170.315 401.569 169.657 402.025 169.105 401.835L155.921 401.376C155.317 401.04 155.084 400.288 155.392 399.669C155.652 398.917 156.31 398.461 156.862 398.652L157.758 399.105L156.834 397.223C155.699 394.915 155.918 392.171 157.405 390.072L157.243 385.929C155.842 384.289 155.376 382.046 156.008 379.983L156.897 377.082L155.847 350.215L156.059 344.188L155.622 337.349L153.601 306.592L145.952 344.415L138.139 401.276C138.521 401.621 138.689 402.144 138.578 402.647C138.412 403.322 137.801 403.791 137.106 403.777H126.501C125.704 403.777 125.057 403.129 125.058 402.332C125.058 402.203 125.076 402.074 125.11 401.949C125.294 401.316 125.88 400.884 126.54 400.895Z" fill="#2F2E41"/>
<path d="M187.204 302.26C188.613 300.528 188.351 297.983 186.619 296.574C186.434 296.423 186.236 296.29 186.028 296.174L179.592 275.837L172.287 279.087L180.355 297.984C179.398 300.015 180.269 302.436 182.301 303.392C184.001 304.193 186.027 303.725 187.204 302.26Z" fill="#FFB6B6"/>
<path d="M160.718 237.607C160.718 237.607 168.059 263.574 167.727 266.197C167.041 271.606 133.307 288.233 130.798 280.834L131.113 278.402C129.845 275.868 137.578 265.813 137.953 264.497C138.43 262.816 136.271 257.294 136.271 257.294C136.271 257.294 137.763 252.253 137.525 249.132C137.282 246.011 136.562 246.492 133.921 244.568C131.28 242.648 126.957 233.767 126.957 233.767C126.957 233.767 128.878 225.124 128.878 223.442C128.878 221.76 136.77 218.896 137.728 217.938C138.145 217.381 138.496 216.779 138.775 216.141C138.969 215.753 138.845 214.852 139.053 214.407C139.185 214.115 139.649 214.296 139.786 213.996C139.918 213.705 139.804 213.369 139.936 213.082C140.108 212.703 140.523 212.372 140.687 212.014C141.437 210.372 142.078 209.035 142.277 209.035C142.753 209.035 158.13 211.198 158.13 211.198C158.967 212.491 159.932 213.698 161.01 214.799C162.692 216.477 170.566 220.56 170.566 220.56L160.718 237.607Z" fill="#1F2C9F"/>
<path d="M181.481 281.292C180.28 282.493 174.336 288.005 174.094 286.562C173.855 285.123 173.725 284.951 172.763 284.474C171.8 283.993 171.8 283.754 171.561 282.073C171.323 280.391 169.159 278.709 169.402 277.99C169.64 277.27 169.418 278.186 169.418 277.462C169.418 276.742 168.698 274.102 167.735 273.621C166.777 273.14 165.333 272.664 166.057 271.463C166.777 270.262 159.278 234.243 159.278 234.243L166.004 221.041L170.566 220.56C170.566 220.56 171.952 221.353 172.386 228.5C172.408 228.862 172.803 229.526 172.82 229.922C172.834 230.25 172.471 230.304 172.481 230.657C172.483 230.732 172.485 230.808 172.487 230.884C172.496 231.235 173.443 231.493 173.457 231.831C173.482 232.435 173.854 236.289 173.894 236.855C173.939 237.493 173.993 238.108 174.054 238.7C174.718 245.141 174.956 245.685 175.367 247.741C176.004 250.923 178.643 269.507 178.643 269.507C178.643 269.507 180.564 269.984 180.564 271.666C180.564 273.348 182.683 276.728 181.724 278.648C180.762 280.572 182.683 280.091 181.481 281.292Z" fill="#1F2C9F"/>
<path d="M148.788 208.542C155.08 208.542 160.181 203.443 160.181 197.154C160.181 190.865 155.08 185.767 148.788 185.767C142.496 185.767 137.396 190.865 137.396 197.154C137.396 203.443 142.496 208.542 148.788 208.542Z" fill="#FFB8B8"/>
<path d="M124.237 221.086C121.826 220.232 119.415 219.377 117.005 218.52C117.42 217.823 117.949 217.2 118.57 216.678C120.866 214.762 124.034 214.416 126.948 213.769C129.867 213.123 133.036 211.798 134.103 209.01C135.211 206.111 133.604 202.981 132.671 200.026C131.293 195.882 131.46 191.38 133.142 187.349C134.883 183.314 138.406 180.321 142.67 179.252C146.891 178.315 151.662 179.843 154.258 183.296C157.719 182.258 161.41 183.966 162.858 187.275C163.526 188.796 163.423 190.544 162.581 191.975C161.68 193.337 159.754 194.034 158.304 193.277L159.145 191.144C156.544 192.026 154.854 196.725 155.205 199.449C155.551 202.168 157.14 204.55 158.752 206.771C160.364 208.991 162.082 211.235 162.775 213.889C163.772 217.707 162.424 221.88 159.93 224.941C157.436 228.002 153.921 230.079 150.281 231.607C147.557 232.752 144.726 233.624 141.829 234.211C142.347 233.205 142.859 232.198 143.377 231.192L137.239 234.903C136.052 235.019 134.855 235.088 133.659 235.111C130.177 235.171 126.625 234.806 123.438 233.417C120.247 232.023 117.443 229.498 116.289 226.215C115.919 225.154 115.743 224.034 115.771 222.91C118.593 222.3 121.415 221.693 124.237 221.086Z" fill="#2F2E41"/>
<path d="M255.542 429.804L54.7542 430C54.3355 429.998 53.9978 429.657 54 429.238C54.0022 428.823 54.3386 428.487 54.7542 428.485L255.542 428.289C255.961 428.291 256.298 428.632 256.296 429.051C256.294 429.466 255.958 429.802 255.542 429.804Z" fill="#2737C7"/>
</g>
<g clip-path="url(#clip1_0_1)">
<path d="M320.134 135.998H520.607C526.551 135.998 531.385 140.834 531.385 146.781V220.46C531.385 226.407 526.551 231.243 520.607 231.243H320.134C314.19 231.243 309.356 226.407 309.356 220.46V146.781C309.356 140.834 314.19 135.998 320.134 135.998Z" fill="white"/>
<path d="M320.134 135.998H520.607C526.551 135.998 531.385 140.834 531.385 146.781V220.46C531.385 226.407 526.551 231.243 520.607 231.243H320.134C314.19 231.243 309.356 226.407 309.356 220.46V146.781C309.356 140.834 314.19 135.998 320.134 135.998ZM310.489 220.46C310.489 225.784 314.813 230.109 320.134 230.109H520.607C525.928 230.109 530.251 225.784 530.251 220.46V146.781C530.251 141.457 525.928 137.132 520.607 137.132H320.134C314.813 137.132 310.489 141.457 310.489 146.781V220.46Z" fill="#3F3D56"/>
<path d="M511.22 169.578H333.049C331.36 169.578 329.992 170.947 329.992 172.636C329.992 174.325 331.36 175.694 333.049 175.694H511.22C512.909 175.694 514.277 174.325 514.277 172.636C514.277 170.947 512.909 169.578 511.22 169.578Z" fill="#1F2C9F"/>
<path d="M511.22 189.675H446.589C444.901 189.675 443.533 191.044 443.533 192.734C443.533 194.423 444.901 195.792 446.589 195.792H511.22C512.909 195.792 514.277 194.423 514.277 192.734C514.277 191.044 512.909 189.675 511.22 189.675Z" fill="#1F2C9F"/>
<path d="M416.458 204.53C409.705 204.53 404.23 199.053 404.23 192.297C404.23 185.54 409.705 180.063 416.458 180.063C423.211 180.063 428.685 185.54 428.685 192.297C428.685 199.053 423.211 204.53 416.458 204.53Z" fill="#1F2C9F"/>
<path d="M410.097 185.133C410.68 184.792 411.57 184.969 411.89 185.604C413.343 188.484 414.797 191.365 416.25 194.245C417.422 192.408 418.922 190.803 420.662 189.459C421.223 189.025 422.13 189.373 422.455 189.929C422.851 190.606 422.547 191.288 421.985 191.722C419.956 193.29 418.391 195.398 417.338 197.724C416.937 198.608 415.493 198.553 415.075 197.724C413.259 194.125 411.443 190.526 409.627 186.927C409.309 186.295 409.461 185.506 410.097 185.133Z" fill="white"/>
<path d="M571.145 161.481C570.369 157.902 570.141 160.539 568.454 157.292C569.612 161.487 567.475 160.114 564.636 163.403C544.685 166.533 543.428 159.697 536.045 159.906L536.007 159.906C534.382 159.88 533.547 157.933 534.527 156.636C536.945 153.433 539.611 148.491 537.088 145.38C532.618 139.868 536.557 128.565 538.484 131.008C538.484 121.582 550.086 115.401 554.587 116.933C562.903 119.763 570.604 123.579 571.537 132.119C571.683 133.453 571.871 134.778 572.111 136.098C572.597 138.779 574.6 139.49 573.91 142.123L571.755 144.316C570.744 148.179 571.063 152.235 572.449 155.98C573.215 158.05 573.321 159.825 571.145 161.481Z" fill="#2F2E41"/>
<path d="M550.375 148.833C543.468 148.833 537.869 143.232 537.869 136.321C537.869 129.411 543.468 123.81 550.375 123.81C557.281 123.81 562.88 129.411 562.88 136.321C562.88 143.232 557.281 148.833 550.375 148.833Z" fill="#A0616A"/>
<path d="M569.855 421.551L563.415 421.703L559.825 392.755L569.33 392.53L569.855 421.551Z" fill="#A0616A"/>
<path d="M547.76 434.993C547.76 436.082 548.532 436.964 549.484 436.964H562.268C562.268 436.964 563.526 431.905 568.655 429.728L569.009 436.964H575.603L574.804 425.328C574.804 425.328 576.568 419.103 572.905 415.921C569.241 412.739 572.208 413.182 572.208 413.182L570.767 405.98L560.802 407.152L560.729 418.457L555.893 429.679L548.8 433.184C548.169 433.496 547.76 434.207 547.76 434.993Z" fill="#2F2E41"/>
<path d="M562.772 395.288L557.657 399.205L537.716 377.925L545.265 372.144L562.772 395.288Z" fill="#A0616A"/>
<path d="M552.828 419.171C553.469 420.051 554.612 420.309 555.382 419.748L565.713 412.216C565.713 412.216 563.752 407.386 566.615 402.604L571.161 408.244L576.491 404.358L568.996 395.425C568.996 395.425 566.757 389.355 561.923 388.941C557.089 388.528 559.748 387.138 559.748 387.138L554.344 382.167L546.98 388.986L553.576 398.165L556.273 410.084L552.604 417.096C552.277 417.72 552.365 418.536 552.828 419.171Z" fill="#2F2E41"/>
<path d="M581.201 273.537C580.813 275.13 581.528 282.543 581.128 285.094C580.112 291.579 570.821 326.938 572.424 337.017C578.296 373.95 570.175 397.643 570.175 397.643H557.074L550.087 285.795L543.267 294.788L529.924 334.662L553.528 377.121L541.203 387.305L504.404 328.767L530.553 230.845L532.133 224.932L567.464 223.946L565.499 226.893L569.971 231.314C569.971 231.314 569.977 231.326 570 231.35C570.689 232.312 586 253.864 581.201 273.537Z" fill="#2F2E41"/>
<path d="M570 231.35C565.908 232.811 538.256 231.302 530.553 230.845L532.133 224.932L567.464 223.946L565.499 226.893L569.971 231.314C569.971 231.314 569.977 231.326 570 231.35Z" fill="#A0616A"/>
<path d="M524.268 184.001L525.541 190.757L525.849 192.377L532.618 206.278L531.729 226.656C531.159 229.04 555.194 223.628 567.68 229.219L577.399 182.715L567.544 161.281L559.832 156.994L558.546 151.85H542.208C541.338 155.927 542.282 157.936 543.972 159.092L539.88 170.012L524.268 184.001Z" fill="#1F2C9F"/>
<path d="M511.489 144.152C511.691 145.901 512.272 147.46 513.074 148.635L513.948 165.424L521.92 164.774L520.175 147.814C520.688 146.486 520.898 144.836 520.695 143.086C520.233 139.09 517.798 136.088 515.256 136.382C512.713 136.676 511.027 140.155 511.489 144.152Z" fill="#A0616A"/>
<path d="M543.266 161.795L542.226 164.335C542.226 164.335 557.423 162.811 557.098 170.75C556.822 177.523 528.216 204.367 526.849 204.994C522.801 206.85 518.096 204.352 517.363 199.957C510.922 183.331 509.587 168.341 512.53 154.723H521.264L524.108 165.466L524.268 173.638L528.874 183.467L543.972 164.335L543.266 161.795Z" fill="#1F2C9F"/>
<path d="M593.899 255.113C593.338 253.401 593.209 251.704 593.451 250.269L587.072 234.299L594.756 231.485L600.399 247.987C601.444 249 602.345 250.443 602.907 252.155C604.19 256.066 603.213 259.898 600.726 260.715C598.238 261.532 595.182 259.023 593.899 255.113Z" fill="#A0616A"/>
<path d="M557.104 161.804C557.104 161.804 566.539 158.224 571.895 162.598C574.104 164.402 583.872 176.83 585.377 193.562C585.495 194.874 586.388 196.002 586.891 197.228C589.993 204.792 595.334 208.276 597.605 214.745C598.492 217.273 596.865 223.81 597.425 225.991C600.362 237.411 599.302 243.922 599.302 243.922L591.373 246.563L587.072 243.522L580.007 217.712L557.104 161.804Z" fill="#1F2C9F"/>
<path d="M624 437.96C624 438.537 623.537 439 622.961 439H432.308C431.732 439 431.269 438.537 431.269 437.96C431.269 437.383 431.732 436.92 432.308 436.92H622.961C623.537 436.92 624 437.383 624 437.96Z" fill="#1F2C9F"/>
<path d="M546.985 121.518H549.531C556.979 121.526 569.71 132.066 564.784 139.459C568.99 150.685 569.143 156.526 567.358 159.583C566.7 160.708 565.395 161.221 564.096 161.13C563.923 161.118 563.748 161.114 563.572 161.12C562.313 161.161 560.625 167.083 559.453 167.538L556.342 166.592L551.239 161.491L553.828 153.71L558.838 149.789L558.156 140.706C561.509 132.996 557.861 132.618 555.808 130.131L555.6 138.111L552.66 135.272C550.265 135.334 547.466 136.373 545.606 134.212C542.226 130.256 538.722 135.032 534.73 135.998L533.492 135.017C533.449 132.792 533.778 130.644 534.417 128.721C534.717 127.815 535.486 127.069 535.518 126.169C535.639 122.791 542.02 119.515 546.985 121.518Z" fill="#2F2E41"/>
<path d="M54 429H232V430L52 434.5L54 429Z" fill="#2737C7"/>
</g>
<path d="M430.5 438L624.5 437.009L630 443.509L431.5 439L430.5 438Z" fill="#1F2C9F"/>
<defs>
<clipPath id="clip0_0_1">
<rect width="343" height="369" fill="white" transform="translate(54 61)"/>
</clipPath>
<clipPath id="clip1_0_1">
<rect width="570" height="337" fill="white" transform="matrix(-1 0 0 1 624 102)"/>
</clipPath>
</defs>
</svg>
