<svg width="100" height="100" viewBox="0 0 100 100" fill="none" xmlns="http://www.w3.org/2000/svg">
<mask id="mask0_2094_147" style="mask-type:alpha" maskUnits="userSpaceOnUse" x="0" y="0" width="100" height="100">
<rect width="100" height="100" fill="#F3F6FF"/>
</mask>
<g mask="url(#mask0_2094_147)">
<path d="M49.4792 83.3334C49.7569 83.3334 50.0347 83.2639 50.3125 83.125C50.5903 82.9862 50.7986 82.8473 50.9375 82.7084L85.1042 48.5417C85.9375 47.7084 86.5451 46.7709 86.9271 45.7292C87.309 44.6875 87.5 43.6459 87.5 42.6042C87.5 41.4931 87.309 40.4341 86.9271 39.4271C86.5451 38.4202 85.9375 37.5348 85.1042 36.7709L67.3958 19.0625C66.6319 18.2292 65.7465 17.6216 64.7396 17.2396C63.7326 16.8577 62.6736 16.6667 61.5625 16.6667C60.5208 16.6667 59.4792 16.8577 58.4375 17.2396C57.3958 17.6216 56.4583 18.2292 55.625 19.0625L54.4792 20.2084L62.1875 28.0209C63.2292 28.9931 63.9931 30.1042 64.4792 31.3542C64.9653 32.6042 65.2083 33.9237 65.2083 35.3125C65.2083 38.2292 64.2188 40.6771 62.2396 42.6563C60.2604 44.6355 57.8125 45.625 54.8958 45.625C53.5069 45.625 52.1701 45.382 50.8854 44.8959C49.6007 44.4098 48.4722 43.6806 47.5 42.7084L39.6875 35L21.4583 53.2292C21.25 53.4375 21.0938 53.6632 20.9896 53.9063C20.8854 54.1493 20.8333 54.4098 20.8333 54.6875C20.8333 55.2431 21.0417 55.7466 21.4583 56.198C21.875 56.6493 22.3611 56.875 22.9167 56.875C23.1944 56.875 23.4722 56.8056 23.75 56.6667C24.0278 56.5278 24.2361 56.3889 24.375 56.25L38.5417 42.0834L44.375 47.9167L30.3125 62.0834C30.1042 62.2917 29.9479 62.5174 29.8438 62.7605C29.7396 63.0035 29.6875 63.2639 29.6875 63.5417C29.6875 64.0973 29.8958 64.5834 30.3125 65C30.7292 65.4167 31.2153 65.625 31.7708 65.625C32.0486 65.625 32.3264 65.5556 32.6042 65.4167C32.8819 65.2778 33.0903 65.1389 33.2292 65L47.3958 50.9375L53.2292 56.7709L39.1667 70.9375C38.9583 71.0764 38.8021 71.2848 38.6979 71.5625C38.5937 71.8403 38.5417 72.1181 38.5417 72.3959C38.5417 72.9514 38.75 73.4375 39.1667 73.8542C39.5833 74.2709 40.0694 74.4792 40.625 74.4792C40.9028 74.4792 41.1632 74.4271 41.4062 74.323C41.6493 74.2188 41.875 74.0625 42.0833 73.8542L56.25 59.7917L62.0833 65.625L47.9167 79.7917C47.7083 80 47.5521 80.2257 47.4479 80.4688C47.3438 80.7119 47.2917 80.9723 47.2917 81.25C47.2917 81.8056 47.5174 82.2917 47.9688 82.7084C48.4201 83.125 48.9236 83.3334 49.4792 83.3334ZM49.375 91.6667C46.8056 91.6667 44.5312 90.816 42.5521 89.1146C40.5729 87.4132 39.4097 85.2778 39.0625 82.7084C36.7014 82.3612 34.7222 81.3889 33.125 79.7917C31.5278 78.1945 30.5556 76.2153 30.2083 73.8542C27.8472 73.507 25.8854 72.5174 24.3229 70.8855C22.7604 69.2535 21.8056 67.2917 21.4583 65C18.8194 64.6528 16.6667 63.507 15 61.5625C13.3333 59.6181 12.5 57.3264 12.5 54.6875C12.5 53.2987 12.7604 51.9619 13.2812 50.6771C13.8021 49.3924 14.5486 48.2639 15.5208 47.2917L39.6875 23.2292L53.3333 36.875C53.4722 37.0834 53.6806 37.2396 53.9583 37.3438C54.2361 37.448 54.5139 37.5 54.7917 37.5C55.4167 37.5 55.9375 37.3091 56.3542 36.9271C56.7708 36.5452 56.9792 36.0417 56.9792 35.4167C56.9792 35.1389 56.9271 34.8612 56.8229 34.5834C56.7188 34.3056 56.5625 34.0973 56.3542 33.9584L41.4583 19.0625C40.6944 18.2292 39.809 17.6216 38.8021 17.2396C37.7951 16.8577 36.7361 16.6667 35.625 16.6667C34.5833 16.6667 33.5417 16.8577 32.5 17.2396C31.4583 17.6216 30.5208 18.2292 29.6875 19.0625L15 33.8542C14.375 34.4792 13.8542 35.2084 13.4375 36.0417C13.0208 36.875 12.7431 37.7084 12.6042 38.5417C12.4653 39.375 12.4653 40.2257 12.6042 41.0938C12.7431 41.9618 13.0208 42.7778 13.4375 43.5417L7.39583 49.5834C6.21528 47.9862 5.34722 46.2327 4.79167 44.323C4.23611 42.4132 4.02778 40.4862 4.16667 38.5417C4.30556 36.5973 4.79167 34.7049 5.625 32.8646C6.45833 31.0243 7.60417 29.375 9.0625 27.9167L23.75 13.2292C25.4167 11.632 27.2743 10.4167 29.3229 9.58337C31.3715 8.75004 33.4722 8.33337 35.625 8.33337C37.7778 8.33337 39.8785 8.75004 41.9271 9.58337C43.9757 10.4167 45.7986 11.632 47.3958 13.2292L48.5417 14.375L49.6875 13.2292C51.3542 11.632 53.2118 10.4167 55.2604 9.58337C57.309 8.75004 59.4097 8.33337 61.5625 8.33337C63.7153 8.33337 65.816 8.75004 67.8646 9.58337C69.9132 10.4167 71.7361 11.632 73.3333 13.2292L90.9375 30.8334C92.5347 32.4306 93.75 34.2709 94.5833 36.3542C95.4167 38.4375 95.8333 40.5556 95.8333 42.7084C95.8333 44.8612 95.4167 46.9618 94.5833 49.0105C93.75 51.0591 92.5347 52.882 90.9375 54.4792L56.7708 88.5417C55.7986 89.5139 54.6701 90.2778 53.3854 90.8334C52.1007 91.3889 50.7639 91.6667 49.375 91.6667Z" fill="#F3F6FF"/>
</g>
</svg>
